<svg viewBox="0 0 1200 630" xmlns="http://www.w3.org/2000/svg"><title>Ink drawing of fermentation jars on a shelf; crystals rise from the middle one inside rings of sound.</title>
  <rect width="1200" height="630" fill="#fcfbf7"/>
  <g stroke="#1a1a18" fill="none" stroke-linecap="round">
    <g stroke-width="2.5" stroke-dasharray="14 12">
      <circle cx="600" cy="290" r="150"/>
      <circle cx="600" cy="290" r="210"/>
      <circle cx="600" cy="290" r="270"/>
    </g>
    <line x1="80" y1="478" x2="1120" y2="478" stroke-width="6"/>
    <g stroke-width="4">
      <line x1="130" y1="478" x2="130" y2="580"/>
      <line x1="1070" y1="478" x2="1070" y2="580"/>
      <line x1="130" y1="520" x2="170" y2="478"/>
      <line x1="1070" y1="520" x2="1030" y2="478"/>
    </g>
    <g stroke-width="5">
      <rect x="206" y="312" width="170" height="166" rx="16"/>
      <rect x="230" y="286" width="122" height="28" rx="6"/>
      <g stroke-width="3">
        <path d="M236 380 q24 -26 50 -6 q26 20 50 -4 q20 -18 26 2"/>
        <path d="M232 420 q22 -22 46 -6 q26 18 50 -2 q22 -16 30 0"/>
        <circle cx="262" cy="448" r="6"/>
        <circle cx="318" cy="442" r="4.5"/>
      </g>
    </g>
    <g stroke-width="5">
      <rect x="824" y="312" width="170" height="166" rx="16"/>
      <rect x="848" y="286" width="122" height="28" rx="6"/>
      <g stroke-width="3">
        <path d="M852 376 q26 -22 52 -4 q24 16 48 -4 q18 -14 26 2"/>
        <path d="M850 418 q24 -20 48 -4 q26 16 52 -4 q16 -12 26 2"/>
        <circle cx="888" cy="448" r="5"/>
        <circle cx="946" cy="440" r="6"/>
      </g>
    </g>
    <g stroke-width="6">
      <rect x="498" y="292" width="204" height="186" rx="18"/>
      <rect x="524" y="262" width="152" height="32" rx="6" stroke-width="5"/>
    </g>
    <g stroke-width="4">
      <polygon points="600,196 634,296 566,296"/>
      <polygon points="556,234 582,300 528,300"/>
      <polygon points="646,238 672,302 616,302"/>
      <polygon points="600,310 628,378 572,378"/>
      <line x1="600" y1="196" x2="600" y2="296" stroke-width="2"/>
      <line x1="556" y1="234" x2="556" y2="298" stroke-width="2"/>
      <line x1="646" y1="238" x2="646" y2="300" stroke-width="2"/>
    </g>
    <g stroke-width="3">
      <circle cx="552" cy="424" r="6"/>
      <circle cx="606" cy="440" r="7"/>
      <circle cx="648" cy="408" r="5"/>
      <path d="M524 396 q26 -20 52 -4 q26 16 52 -2 q24 -16 48 0" />
    </g>
    <g stroke-width="2">
      <line x1="240" y1="560" x2="420" y2="560"/>
      <line x1="500" y1="580" x2="700" y2="580"/>
      <line x1="780" y1="560" x2="960" y2="560"/>
    </g>
  </g>
</svg>
