<svg viewBox="0 0 1200 630" xmlns="http://www.w3.org/2000/svg"><title>Ink drawing of pigeons on dawn wires, with dashed outlines where four are missing.</title>
  <rect width="1200" height="630" fill="#fcfbf7"/>
  <g stroke="#1a1a18" fill="none" stroke-linecap="round">
    <circle cx="950" cy="140" r="64" stroke-width="5"/>
    <g stroke-width="2.5">
      <line x1="950" y1="44" x2="950" y2="20"/>
      <line x1="950" y1="236" x2="950" y2="260"/>
      <line x1="854" y1="140" x2="830" y2="140"/>
      <line x1="1046" y1="140" x2="1070" y2="140"/>
      <line x1="882" y1="72" x2="866" y2="56"/>
      <line x1="1018" y1="72" x2="1034" y2="56"/>
      <line x1="882" y1="208" x2="866" y2="224"/>
      <line x1="1018" y1="208" x2="1034" y2="224"/>
    </g>
    <g stroke-width="4">
      <polyline points="0,480 120,480 180,428 250,480 360,480"/>
      <polyline points="360,480 430,480 500,408 580,480 700,480"/>
      <polyline points="700,480 800,480 850,432 920,480 1060,480 1110,440 1200,440"/>
      <rect x="210" y="492" width="26" height="34"/>
      <rect x="520" y="492" width="22" height="30"/>
      <rect x="880" y="492" width="26" height="34"/>
    </g>
    <g stroke-width="2">
      <line x1="60" y1="520" x2="160" y2="520"/>
      <line x1="300" y1="540" x2="430" y2="540"/>
      <line x1="620" y1="528" x2="760" y2="528"/>
      <line x1="960" y1="540" x2="1100" y2="540"/>
      <line x1="160" y1="566" x2="320" y2="566"/>
      <line x1="540" y1="572" x2="700" y2="572"/>
      <line x1="850" y1="566" x2="1010" y2="566"/>
    </g>
    <g stroke-width="6">
      <line x1="96" y1="120" x2="96" y2="492"/>
      <line x1="64" y1="152" x2="130" y2="152"/>
      <line x1="1104" y1="100" x2="1104" y2="492"/>
      <line x1="1072" y1="130" x2="1138" y2="130"/>
    </g>
    <path d="M130 158 C 420 212, 780 212, 1072 138" stroke-width="4"/>
    <path d="M130 300 C 420 354, 780 354, 1072 282" stroke-width="4"/>
  </g>
  <g fill="#1a1a18">
    <path d="M220 178 a16 14 0 1 1 30 2 q14 4 10 12 l-22 2 q-20 -2 -18 -16z"/>
    <path d="M320 192 a16 14 0 1 1 30 2 q14 4 10 12 l-22 2 q-20 -2 -18 -16z"/>
    <path d="M420 200 a16 14 0 1 1 30 2 q14 4 10 12 l-22 2 q-20 -2 -18 -16z"/>
    <path d="M880 186 a16 14 0 1 1 30 2 q14 4 10 12 l-22 2 q-20 -2 -18 -16z"/>
    <path d="M250 322 a16 14 0 1 1 30 2 q14 4 10 12 l-22 2 q-20 -2 -18 -16z"/>
    <path d="M360 338 a16 14 0 1 1 30 2 q14 4 10 12 l-22 2 q-20 -2 -18 -16z"/>
    <path d="M760 332 a16 14 0 1 1 30 2 q14 4 10 12 l-22 2 q-20 -2 -18 -16z"/>
    <path d="M870 318 a16 14 0 1 1 30 2 q14 4 10 12 l-22 2 q-20 -2 -18 -16z"/>
    <path d="M970 300 a16 14 0 1 1 30 2 q14 4 10 12 l-22 2 q-20 -2 -18 -16z"/>
  </g>
  <g fill="none" stroke="#1a1a18" stroke-width="3" stroke-dasharray="5 7">
    <path d="M540 204 a16 14 0 1 1 30 2 q14 4 10 12 l-22 2 q-20 -2 -18 -16z"/>
    <path d="M650 204 a16 14 0 1 1 30 2 q14 4 10 12 l-22 2 q-20 -2 -18 -16z"/>
    <path d="M520 346 a16 14 0 1 1 30 2 q14 4 10 12 l-22 2 q-20 -2 -18 -16z"/>
    <path d="M640 344 a16 14 0 1 1 30 2 q14 4 10 12 l-22 2 q-20 -2 -18 -16z"/>
  </g>
</svg>
