<svg viewBox="0 0 1200 630" xmlns="http://www.w3.org/2000/svg"><title>Ink drawing of lost-and-found shelves — umbrella, pocket watch, toy duck — and one cubby with a handwritten note.</title>
  <rect width="1200" height="630" fill="#fcfbf7"/>
  <g stroke="#1a1a18" fill="none" stroke-linecap="round">
    <g stroke-width="5">
      <rect x="100" y="70" width="300" height="220" rx="8"/>
      <rect x="450" y="70" width="300" height="220" rx="8"/>
      <rect x="800" y="70" width="300" height="220" rx="8"/>
      <rect x="100" y="340" width="300" height="220" rx="8"/>
      <rect x="450" y="340" width="300" height="220" rx="8"/>
      <rect x="800" y="340" width="300" height="220" rx="8"/>
    </g>
    <g stroke-width="4.5">
      <path d="M180 242 a70 70 0 0 1 140 0"/>
      <line x1="180" y1="242" x2="320" y2="242" stroke-width="3"/>
      <path d="M198 242 q26 -16 52 0 q26 16 52 0"/>
      <line x1="250" y1="172" x2="250" y2="260" stroke-width="5"/>
      <path d="M250 260 q0 18 -18 16"/>
      <line x1="250" y1="156" x2="250" y2="172" stroke-width="3"/>
    </g>
    <g stroke-width="4.5">
      <circle cx="600" cy="186" r="52"/>
      <circle cx="600" cy="186" r="40" stroke-width="2.5"/>
      <line x1="600" y1="186" x2="600" y2="158" stroke-width="4"/>
      <line x1="600" y1="186" x2="620" y2="194" stroke-width="4"/>
      <rect x="588" y="120" width="24" height="16" rx="4" stroke-width="3.5"/>
      <path d="M600 120 q-40 -22 -64 6" stroke-width="2.5"/>
      <g stroke-width="1.5">
        <line x1="600" y1="150" x2="600" y2="158"/>
        <line x1="636" y1="186" x2="628" y2="186"/>
        <line x1="600" y1="222" x2="600" y2="214"/>
        <line x1="564" y1="186" x2="572" y2="186"/>
      </g>
    </g>
    <g stroke-width="4.5">
      <ellipse cx="950" cy="216" rx="56" ry="38"/>
      <circle cx="914" cy="180" r="25"/>
      <polygon points="889,180 866,188 889,196"/>
      <circle cx="906" cy="174" r="3.5" fill="#1a1a18" stroke="none"/>
      <path d="M962 180 q18 -10 30 0" stroke-width="2.5"/>
      <path d="M920 250 q-12 14 -24 10" stroke-width="3"/>
      <line x1="906" y1="254" x2="994" y2="254" stroke-width="2"/>
    </g>
    <g stroke-width="4.5">
      <rect x="170" y="420" width="160" height="104" rx="6"/>
      <polyline points="170,420 250,484 330,420"/>
      <circle cx="250" cy="500" r="10" stroke-width="3.5"/>
    </g>
    <g transform="rotate(-6 600 475)" stroke-width="4.5">
      <rect x="540" y="400" width="120" height="150" rx="12"/>
      <circle cx="600" cy="446" r="22"/>
      <g stroke-width="3">
        <line x1="600" y1="416" x2="600" y2="406"/>
        <line x1="600" y1="476" x2="600" y2="486"/>
        <line x1="570" y1="446" x2="560" y2="446"/>
        <line x1="630" y1="446" x2="640" y2="446"/>
      </g>
      <line x1="560" y1="516" x2="640" y2="516" stroke-width="2.5"/>
      <line x1="560" y1="530" x2="616" y2="530" stroke-width="2.5"/>
    </g>
    <g transform="rotate(5 950 470)">
      <rect x="880" y="400" width="140" height="150" rx="4" stroke-width="4"/>
      <circle cx="950" cy="404" r="7" stroke-width="3"/>
      <g stroke-width="3.5">
        <path d="M900 444 q26 -10 50 0 q24 10 48 0"/>
        <path d="M900 480 q26 -10 50 0 q24 10 48 0"/>
        <path d="M900 516 q20 -8 38 0"/>
      </g>
    </g>
    <line x1="40" y1="600" x2="1160" y2="600" stroke-width="5"/>
  </g>
</svg>
